<?xml version="1.0" encoding="UTF-8"?>
<svg id="Layer_1" data-name="Layer 1" xmlns="http://www.w3.org/2000/svg" viewBox="0 0 602 360">
  <defs>
    <style>
      .cls-1 {
        fill: #231f20;
      }

      .cls-2 {
        fill: #4dbc3c;
      }
    </style>
  </defs>
  <path class="cls-2" d="m142.36,67.86s-16.35,49.29-59.69,77.9c-49.49,32.66-61.39,91.45-18.63,150.72,0,0,54.22-54.94,51.23-128.28,0,0,17.69,56.61-42.76,145.21-20.19,29.59-22.2,47.39-14.2,46.56,6.13-.64.21-11.05,19.32-36.93,15.91-21.54,77.41-48.85,91.09-100.04,15.23-57.01-26.36-155.14-26.36-155.14Z"/>
  <polygon class="cls-1" points="209.42 266.88 147.57 266.88 152.78 260.88 203.42 260.88 203.42 50.54 6.47 50.54 6.47 260.88 41.11 260.88 43.81 266.88 .47 266.88 .47 44.54 209.42 44.54 209.42 266.88"/>
  <g>
    <g>
      <path class="cls-1" d="m279.65,108.93v3.63c0,10.45-3.19,16.98-10.31,20.32v.29c8.56,3.34,11.9,10.89,11.9,21.63v8.27c0,15.68-8.27,24.1-24.24,24.1h-25.11v-101.62h24.1c16.55,0,23.66,7.7,23.66,23.37Zm-31.79-8.85v26.86h6.24c5.95,0,9.58-2.61,9.58-10.74v-5.66c0-7.26-2.47-10.45-8.13-10.45h-7.7Zm0,41.37v31.21h9.15c5.37,0,8.27-2.47,8.27-10.02v-8.85c0-9.44-3.05-12.34-10.31-12.34h-7.11Z"/>
      <path class="cls-1" d="m290.84,85.56h15.97v101.62h-15.97v-101.62Z"/>
      <path class="cls-1" d="m342.38,130.56h22.36v32.23c0,16.26-8.13,25.55-23.81,25.55s-23.81-9.29-23.81-25.55v-52.84c0-16.26,8.13-25.55,23.81-25.55s23.81,9.29,23.81,25.55v9.87h-15.1v-10.89c0-7.26-3.19-10.01-8.27-10.01s-8.27,2.76-8.27,10.01v54.88c0,7.26,3.19,9.87,8.27,9.87s8.27-2.61,8.27-9.87v-18.73h-7.26v-14.52Z"/>
      <path class="cls-1" d="m397.55,85.56h15.97v87.1h26.27v14.52h-42.24v-101.62Z"/>
      <path class="cls-1" d="m462.74,128.39h21.92v14.52h-21.92v29.76h27.58v14.52h-43.55v-101.62h43.55v14.52h-27.58v28.31Z"/>
      <path class="cls-1" d="m551.88,187.18h-16.11l-2.76-18.44h-19.6l-2.76,18.44h-14.66l16.26-101.62h23.37l16.26,101.62Zm-36.44-32.23h15.39l-7.55-51.39h-.29l-7.55,51.39Z"/>
      <path class="cls-1" d="m575.26,130.71h20.61v14.52h-20.61v41.95h-15.97v-101.62h42.24v14.52h-26.27v30.63Z"/>
    </g>
    <g>
      <path class="cls-1" d="m233.61,206.31c1.15-2.08,2.72-3.7,4.7-4.86s4.21-1.74,6.66-1.74c2.98,0,5.54.71,7.67,2.13s3.68,3.41,4.65,5.99h-3.14c-.77-1.81-1.93-3.22-3.5-4.25s-3.46-1.53-5.68-1.53c-1.96,0-3.73.46-5.3,1.38s-2.8,2.24-3.69,3.96c-.89,1.72-1.34,3.72-1.34,5.99s.45,4.26,1.34,5.97c.89,1.71,2.12,3.02,3.69,3.94,1.57.92,3.33,1.38,5.3,1.38,2.22,0,4.11-.5,5.68-1.51s2.74-2.4,3.5-4.19h3.14c-.97,2.55-2.53,4.53-4.67,5.93-2.14,1.4-4.69,2.1-7.65,2.1-2.45,0-4.67-.58-6.66-1.74s-3.56-2.77-4.7-4.84c-1.15-2.07-1.72-4.41-1.72-7.04s.57-4.98,1.72-7.06Z"/>
      <path class="cls-1" d="m267.89,225.28c-2.01-1.16-3.6-2.78-4.76-4.86-1.16-2.08-1.74-4.43-1.74-7.06s.58-4.98,1.74-7.06c1.16-2.08,2.75-3.7,4.76-4.86s4.26-1.74,6.73-1.74,4.76.58,6.77,1.74,3.6,2.78,4.74,4.86c1.15,2.08,1.72,4.43,1.72,7.06s-.57,4.98-1.72,7.06c-1.15,2.08-2.73,3.7-4.74,4.86-2.01,1.16-4.27,1.74-6.77,1.74s-4.72-.58-6.73-1.74Zm12.09-1.97c1.58-.92,2.83-2.24,3.75-3.96.92-1.72,1.38-3.72,1.38-5.99s-.46-4.26-1.38-5.97c-.92-1.71-2.17-3.02-3.75-3.94-1.58-.92-3.37-1.38-5.36-1.38s-3.77.46-5.36,1.38c-1.58.92-2.83,2.23-3.75,3.94-.92,1.71-1.38,3.7-1.38,5.97s.46,4.26,1.38,5.99c.92,1.72,2.17,3.04,3.75,3.96s3.37,1.38,5.36,1.38,3.77-.46,5.36-1.38Z"/>
      <path class="cls-1" d="m312.91,226.75h-2.68l-14.8-22.49v22.49h-2.68v-26.74h2.68l14.8,22.45v-22.45h2.68v26.74Z"/>
      <path class="cls-1" d="m322.45,226.1c-1.34-.61-2.39-1.47-3.16-2.56s-1.17-2.32-1.22-3.67h2.83c.13,1.3.7,2.44,1.72,3.42,1.02.98,2.51,1.47,4.48,1.47,1.81,0,3.25-.47,4.3-1.4s1.59-2.11,1.59-3.54c0-1.15-.29-2.07-.88-2.77-.59-.7-1.31-1.22-2.18-1.57-.87-.34-2.07-.72-3.6-1.13-1.79-.48-3.2-.96-4.25-1.42-1.05-.46-1.94-1.17-2.68-2.14-.74-.97-1.11-2.28-1.11-3.94,0-1.38.36-2.61,1.07-3.69.71-1.08,1.72-1.93,3.02-2.54s2.79-.92,4.48-.92c2.47,0,4.47.61,5.99,1.82,1.52,1.21,2.39,2.77,2.62,4.69h-2.91c-.18-1.1-.78-2.07-1.8-2.93-1.02-.85-2.4-1.28-4.13-1.28-1.61,0-2.95.43-4.02,1.28-1.07.86-1.61,2.02-1.61,3.5,0,1.12.29,2.03.88,2.72.59.69,1.32,1.21,2.2,1.57.88.36,2.07.74,3.58,1.15,1.73.48,3.14.96,4.21,1.44,1.07.47,1.98,1.19,2.72,2.16.74.97,1.11,2.27,1.11,3.9,0,1.25-.33,2.44-.99,3.56-.66,1.12-1.64,2.03-2.95,2.71-1.3.69-2.86,1.03-4.67,1.03s-3.31-.3-4.65-.92Z"/>
      <path class="cls-1" d="m356.51,200.01v2.22h-7.42v24.52h-2.68v-24.52h-7.46v-2.22h17.56Z"/>
      <path class="cls-1" d="m374.99,226.75l-6.62-11.17h-4.93v11.17h-2.68v-26.74h8.03c2.98,0,5.25.71,6.79,2.14s2.31,3.3,2.31,5.62c0,1.94-.55,3.59-1.66,4.95-1.11,1.36-2.75,2.25-4.92,2.66l6.89,11.36h-3.21Zm-11.55-13.35h5.39c2.09,0,3.67-.51,4.72-1.53s1.59-2.38,1.59-4.09-.51-3.12-1.53-4.07c-1.02-.96-2.63-1.44-4.82-1.44h-5.35v11.13Z"/>
      <path class="cls-1" d="m385.78,200.01v16.83c0,2.65.63,4.62,1.89,5.89,1.26,1.27,2.99,1.91,5.18,1.91s3.91-.63,5.14-1.89c1.24-1.26,1.85-3.23,1.85-5.91v-16.83h2.68v16.79c0,3.39-.9,5.94-2.7,7.65-1.8,1.71-4.14,2.56-7.02,2.56s-5.22-.85-7.02-2.56c-1.8-1.71-2.7-4.26-2.7-7.65v-16.79h2.68Z"/>
      <path class="cls-1" d="m409,206.31c1.15-2.08,2.72-3.7,4.7-4.86s4.21-1.74,6.66-1.74c2.98,0,5.54.71,7.67,2.13,2.13,1.42,3.68,3.41,4.65,5.99h-3.14c-.77-1.81-1.93-3.22-3.5-4.25s-3.46-1.53-5.68-1.53c-1.96,0-3.73.46-5.3,1.38s-2.8,2.24-3.69,3.96c-.89,1.72-1.34,3.72-1.34,5.99s.45,4.26,1.34,5.97c.89,1.71,2.12,3.02,3.69,3.94,1.57.92,3.33,1.38,5.3,1.38,2.22,0,4.11-.5,5.68-1.51s2.74-2.4,3.5-4.19h3.14c-.97,2.55-2.52,4.53-4.67,5.93-2.14,1.4-4.69,2.1-7.65,2.1-2.45,0-4.67-.58-6.66-1.74s-3.56-2.77-4.7-4.84c-1.15-2.07-1.72-4.41-1.72-7.04s.57-4.98,1.72-7.06Z"/>
      <path class="cls-1" d="m453.64,200.01v2.22h-7.42v24.52h-2.68v-24.52h-7.46v-2.22h17.56Z"/>
      <path class="cls-1" d="m460.56,200.01v26.74h-2.68v-26.74h2.68Z"/>
      <path class="cls-1" d="m471.92,225.28c-2.02-1.16-3.6-2.78-4.76-4.86-1.16-2.08-1.74-4.43-1.74-7.06s.58-4.98,1.74-7.06c1.16-2.08,2.75-3.7,4.76-4.86,2.01-1.16,4.26-1.74,6.73-1.74s4.76.58,6.77,1.74,3.6,2.78,4.74,4.86c1.15,2.08,1.72,4.43,1.72,7.06s-.58,4.98-1.72,7.06c-1.15,2.08-2.73,3.7-4.74,4.86-2.01,1.16-4.27,1.74-6.77,1.74s-4.72-.58-6.73-1.74Zm12.09-1.97c1.58-.92,2.83-2.24,3.75-3.96.92-1.72,1.38-3.72,1.38-5.99s-.46-4.26-1.38-5.97c-.92-1.71-2.17-3.02-3.75-3.94-1.58-.92-3.37-1.38-5.35-1.38s-3.77.46-5.36,1.38c-1.58.92-2.83,2.23-3.75,3.94-.92,1.71-1.38,3.7-1.38,5.97s.46,4.26,1.38,5.99c.92,1.72,2.17,3.04,3.75,3.96s3.37,1.38,5.36,1.38,3.77-.46,5.35-1.38Z"/>
      <path class="cls-1" d="m516.94,226.75h-2.68l-14.8-22.49v22.49h-2.68v-26.74h2.68l14.8,22.45v-22.45h2.68v26.74Z"/>
      <path class="cls-1" d="m536.18,200.01v26.74h-2.68v-26.74h2.68Z"/>
      <path class="cls-1" d="m562.42,226.75h-2.68l-14.8-22.49v22.49h-2.68v-26.74h2.68l14.8,22.45v-22.45h2.68v26.74Z"/>
      <path class="cls-1" d="m569,206.31c1.15-2.08,2.72-3.7,4.71-4.86,1.99-1.16,4.21-1.74,6.66-1.74,2.98,0,5.54.71,7.67,2.13,2.13,1.42,3.68,3.41,4.65,5.99h-3.14c-.77-1.81-1.93-3.22-3.5-4.25s-3.46-1.53-5.68-1.53c-1.96,0-3.73.46-5.3,1.38s-2.8,2.24-3.69,3.96c-.89,1.72-1.34,3.72-1.34,5.99s.45,4.26,1.34,5.97c.89,1.71,2.12,3.02,3.69,3.94,1.57.92,3.33,1.38,5.3,1.38,2.22,0,4.11-.5,5.68-1.51s2.74-2.4,3.5-4.19h3.14c-.97,2.55-2.52,4.53-4.67,5.93-2.14,1.4-4.69,2.1-7.65,2.1-2.45,0-4.67-.58-6.66-1.74-1.99-1.16-3.56-2.77-4.71-4.84-1.15-2.07-1.72-4.41-1.72-7.04s.58-4.98,1.72-7.06Z"/>
      <path class="cls-1" d="m597.06,226.37c-.37-.38-.55-.85-.55-1.42s.19-1.03.55-1.4c.37-.37.84-.55,1.4-.55s.99.19,1.36.55.55.84.55,1.4-.18,1.03-.55,1.42c-.37.38-.82.57-1.36.57s-1.03-.19-1.4-.57Z"/>
    </g>
  </g>
</svg>