<?xml version="1.0" encoding="UTF-8"?>
<svg id="Layer_1" data-name="Layer 1" xmlns="http://www.w3.org/2000/svg" viewBox="0 0 128 128">
  <defs>
    <style>
      .cls-1 {
        fill: #fff;
      }

      .cls-2 {
        fill: #231f20;
      }

      .cls-3 {
        fill: #4dbc3c;
      }
    </style>
  </defs>
  <rect class="cls-1" width="128" height="128" rx="12.41" ry="12.41"/>
  <g>
    <path class="cls-3" d="m77.63,19.58s-5.95,17.95-21.74,28.37c-18.02,11.89-22.36,33.3-6.78,54.89,0,0,19.75-20.01,18.66-46.72,0,0,6.44,20.61-15.57,52.88-7.35,10.78-8.08,17.26-5.17,16.96,2.23-.23.08-4.02,7.04-13.45,5.79-7.85,28.19-17.79,33.17-36.43,5.55-20.76-9.6-56.5-9.6-56.5Z"/>
    <polygon class="cls-2" points="102.05 92.06 79.52 92.06 81.42 89.87 99.86 89.87 99.86 13.27 28.14 13.27 28.14 89.87 40.75 89.87 41.73 92.06 25.95 92.06 25.95 11.09 102.05 11.09 102.05 92.06"/>
  </g>
</svg>